<?xml version="1.0" encoding="UTF-8" standalone="no"?>
<svg
   id="uuid-b0ce6cb8-b465-4ffa-8df5-bf50c2fa6216"
   data-name="Layer 1"
   viewBox="0 0 312.59918 306.54999"
   version="1.1"
   sodipodi:docname="garden.svg"
   width="312.59918"
   height="306.54999"
   inkscape:version="1.1.2 (0a00cf5339, 2022-02-04)"
   xmlns:inkscape="http://www.inkscape.org/namespaces/inkscape"
   xmlns:sodipodi="http://sodipodi.sourceforge.net/DTD/sodipodi-0.dtd"
   xmlns="http://www.w3.org/2000/svg"
   xmlns:svg="http://www.w3.org/2000/svg">
  <sodipodi:namedview
     id="namedview445"
     pagecolor="#ffffff"
     bordercolor="#666666"
     borderopacity="1.0"
     inkscape:pageshadow="2"
     inkscape:pageopacity="0.0"
     inkscape:pagecheckerboard="0"
     showgrid="false"
     fit-margin-top="0"
     fit-margin-left="0"
     fit-margin-right="0"
     fit-margin-bottom="0"
     inkscape:zoom="0.3915"
     inkscape:cx="846.7433"
     inkscape:cy="845.46616"
     inkscape:window-width="1920"
     inkscape:window-height="1016"
     inkscape:window-x="0"
     inkscape:window-y="0"
     inkscape:window-maximized="1"
     inkscape:current-layer="uuid-b0ce6cb8-b465-4ffa-8df5-bf50c2fa6216" />
  <defs
     id="defs4">
    <style
       id="style2">
      .uuid-a0eaf5f6-cabc-4975-b0d8-e888e65bf3c0 {
        fill: #1ca35c;
      }

      .uuid-a0eaf5f6-cabc-4975-b0d8-e888e65bf3c0, .uuid-2146384d-0b09-43da-8e6e-80d934d6d1fd, .uuid-920593d4-1721-40ea-8bf9-1d8df658ac26, .uuid-f599ff54-aa5f-4aaa-b646-8675a15c44ac, .uuid-1486ff97-3d2e-4144-92bb-3c9eeea2e03f, .uuid-27488adf-0585-4392-8759-088aad7410b0, .uuid-462f830c-b78a-4972-ace1-807387b017a0, .uuid-e6cce17e-3c04-4715-b0b8-12b50334c5df, .uuid-3a4fd813-b501-4b9e-852a-00f0f21bd0ef, .uuid-fe70f3d0-a5f7-4cba-9cfe-8e2a16fe1bc2, .uuid-74cd0678-082c-46bc-a0bf-83b069182484, .uuid-5741f930-e638-4455-aea2-657ec14b459c, .uuid-d7db886f-e022-40c8-bc39-bef0a8f108b5 {
        stroke-width: 0px;
      }

      .uuid-2146384d-0b09-43da-8e6e-80d934d6d1fd {
        fill: #17ad5b;
      }

      .uuid-920593d4-1721-40ea-8bf9-1d8df658ac26 {
        fill: #f2b27e;
      }

      .uuid-f599ff54-aa5f-4aaa-b646-8675a15c44ac {
        fill: #06773f;
      }

      .uuid-1486ff97-3d2e-4144-92bb-3c9eeea2e03f {
        fill: #e89e67;
      }

      .uuid-ee63806f-43d9-4642-ae54-e8bcfb15cba9 {
        stroke: #06773f;
        stroke-miterlimit: 10;
        stroke-width: 13.94px;
      }

      .uuid-ee63806f-43d9-4642-ae54-e8bcfb15cba9, .uuid-27488adf-0585-4392-8759-088aad7410b0 {
        fill: none;
      }

      .uuid-462f830c-b78a-4972-ace1-807387b017a0 {
        fill: #f7931e;
      }

      .uuid-e6cce17e-3c04-4715-b0b8-12b50334c5df {
        fill: #b6e56c;
      }

      .uuid-3a4fd813-b501-4b9e-852a-00f0f21bd0ef {
        fill: #5ae4f2;
      }

      .uuid-fe70f3d0-a5f7-4cba-9cfe-8e2a16fe1bc2 {
        fill: #e07b28;
      }

      .uuid-74cd0678-082c-46bc-a0bf-83b069182484 {
        fill: #f4b98c;
      }

      .uuid-5741f930-e638-4455-aea2-657ec14b459c {
        fill: #36aad8;
      }

      .uuid-d7db886f-e022-40c8-bc39-bef0a8f108b5 {
        fill: #88c12f;
      }
    </style>
  </defs>
  <g
     id="g30"
     transform="translate(-153.76082,-153.57)">
    <g
       id="g10">
      <path
         class="uuid-2146384d-0b09-43da-8e6e-80d934d6d1fd"
         d="m 219.57,268.94 c 0,26.17 -12.15,34.73 -27.13,34.73 -14.98,0 -27.13,-8.55 -27.13,-34.73 0,-26.18 12.15,-60.05 27.13,-60.05 14.98,0 27.13,33.88 27.13,60.05 z"
         id="path6" />
      <rect
         class="uuid-2146384d-0b09-43da-8e6e-80d934d6d1fd"
         x="187.09"
         y="282.32999"
         width="10.71"
         height="45.48"
         id="rect8" />
    </g>
    <g
       id="g16">
      <path
         class="uuid-2146384d-0b09-43da-8e6e-80d934d6d1fd"
         d="m 312.53,257.39 c 0,22.43 -10.41,29.77 -23.26,29.77 -12.85,0 -23.26,-7.33 -23.26,-29.77 0,-22.44 10.41,-51.47 23.26,-51.47 12.85,0 23.26,29.04 23.26,51.47 z"
         id="path12" />
      <rect
         class="uuid-2146384d-0b09-43da-8e6e-80d934d6d1fd"
         x="284.69"
         y="268.85999"
         width="9.1800003"
         height="38.990002"
         id="rect14" />
    </g>
    <g
       id="g22">
      <path
         class="uuid-f599ff54-aa5f-4aaa-b646-8675a15c44ac"
         d="m 279.62,240.06 c 0,32.89 -15.26,43.64 -34.09,43.64 -18.83,0 -34.09,-10.75 -34.09,-43.64 0,-32.89 15.26,-75.46 34.09,-75.46 18.83,0 34.09,42.57 34.09,75.46 z"
         id="path18" />
      <line
         class="uuid-ee63806f-43d9-4642-ae54-e8bcfb15cba9"
         x1="245.52"
         y1="256.88"
         x2="245.52"
         y2="307.51999"
         id="line20" />
    </g>
    <path
       class="uuid-462f830c-b78a-4972-ace1-807387b017a0"
       d="m 394.21,183.91 v 0 c -3.44,-2.16 -5.14,-6.26 -4.23,-10.21 v 0 c 1.57,-6.86 -4.57,-13 -11.43,-11.43 v 0 c -3.96,0.91 -8.06,-0.79 -10.21,-4.23 -3.74,-5.96 -12.42,-5.96 -16.16,0 -2.16,3.44 -6.26,5.14 -10.21,4.23 v 0 c -6.86,-1.57 -13,4.57 -11.43,11.43 v 0 c 0.91,3.96 -0.79,8.06 -4.23,10.21 v 0 c -5.96,3.74 -5.96,12.42 0,16.16 3.44,2.16 5.14,6.26 4.23,10.21 -1.57,6.86 4.57,13 11.43,11.43 v 0 c 3.96,-0.91 8.06,0.79 10.21,4.23 v 0 c 3.74,5.96 12.42,5.96 16.16,0 v 0 c 2.16,-3.44 6.26,-5.14 10.21,-4.23 v 0 c 6.86,1.57 13,-4.57 11.43,-11.43 -0.91,-3.96 0.79,-8.06 4.23,-10.21 5.96,-3.74 5.96,-12.42 0,-16.16 z m -33.95,27.28 c -10.6,0 -19.2,-8.6 -19.2,-19.2 0,-10.6 8.6,-19.2 19.2,-19.2 10.6,0 19.2,8.6 19.2,19.2 0,10.6 -8.6,19.2 -19.2,19.2 z"
       id="path24" />
    <path
       class="uuid-e6cce17e-3c04-4715-b0b8-12b50334c5df"
       d="m 327.59,306.41 c 57.95,13.83 100.73,45.71 122.04,64.6 10.61,-21.39 16.73,-45.4 16.73,-70.9 0,-5.5 -0.28,-10.94 -0.83,-16.3 -0.93,-9.17 -8.9,-15.94 -18.11,-15.61 -26.61,0.97 -81.21,6.95 -119.82,38.2 z"
       id="path26" />
    <path
       class="uuid-d7db886f-e022-40c8-bc39-bef0a8f108b5"
       d="m 327.59,306.41 c -21.84,-5.21 -45.8,-7.9 -71.62,-6.3 -40.53,2.51 -69.58,12.1 -90.35,24 -9.62,5.51 -14.23,17.16 -10.65,27.66 18.7,54.79 66.29,96.1 124.64,105.94 8.71,1.47 17.61,2.41 26.74,2.41 25.66,0 49.86,-6.11 71.34,-16.86 4.22,-2.11 6.11,-7.09 4.59,-11.56 -7.82,-23.06 -22.82,-54.57 -51.05,-81.79 -3.12,-3 0.04,-8.14 4.03,-6.48 19.99,8.34 51.86,26.31 75.14,61.96 3.46,5.29 11.04,5.85 15.24,1.13 9.49,-10.65 17.56,-22.58 23.98,-35.51 -21.31,-18.89 -64.09,-50.77 -122.04,-64.6 z"
       id="path28" />
  </g>
  <rect
     class="uuid-27488adf-0585-4392-8759-088aad7410b0"
     width="2000"
     height="2000"
     id="rect442"
     x="-153.76082"
     y="-153.57001" />
</svg>
